<svg id="jedi-order" data-name="jedi-order" xmlns="http://www.w3.org/2000/svg" viewBox="0 0 24 24"><title>Prancheta 1</title><path d="M12.42,16.31l1.66-2.42L13,16.82l3.3.48-3.3.48,1.28,2.5-1.82-1.91.12,4.52s8.15-3.78,3.62-12.15c0,0,5.65-6.23.53-10.07,0,0,8.74,5.27,3.2,14.33,0,0,4.58-4.48,2.18-9a10.38,10.38,0,0,1-.91,12.31s1.39-.85,2.61-4.1c0,0-.89,9.67-11.72,9.8h-.22C1.07,23.89.17,14.21.17,14.21c1.23,3.25,2.61,4.1,2.61,4.1A10.38,10.38,0,0,1,1.88,6c-2.4,4.53,2.18,9,2.18,9C-1.48,6,7.26.68,7.26.68c-5.11,3.84.53,10.07.53,10.07C3.26,19.11,11.42,22.9,11.42,22.9l.12-4.52L9.71,20.28,11,17.78l-3.3-.48,3.3-.48L9.92,13.89l1.66,2.42L12,.11v0c0,.09.3,11.57.41,16.2Z"/></svg>